<?xml version="1.0" standalone="no"?>
<!DOCTYPE svg PUBLIC "-//W3C//DTD SVG 20010904//EN"
 "http://www.w3.org/TR/2001/REC-SVG-20010904/DTD/svg10.dtd">
<svg version="1.0" xmlns="http://www.w3.org/2000/svg"
 width="204.000000pt" height="204.000000pt" viewBox="0 0 204.000000 204.000000"
 preserveAspectRatio="xMidYMid meet">
<metadata>
Created by potrace 1.14, written by Peter Selinger 2001-2017
</metadata>
<g transform="translate(0.000000,204.000000) scale(0.100000,-0.100000)"
fill="#000000" stroke="none">
<path d="M526 1691 l-28 -30 -2 -556 -1 -556 49 -46 c75 -70 118 -84 280 -95
172 -12 470 3 537 26 63 23 112 67 156 139 l38 62 -2 475 -1 474 -34 29 c-43
37 -44 37 -74 75 l-26 32 -432 0 -432 0 -28 -29z m854 -91 l0 -40 40 0 40 0 0
-115 0 -115 -40 0 -40 0 0 -72 -1 -73 -62 -28 c-34 -15 -69 -27 -77 -28 -8 0
-32 -6 -52 -13 -37 -13 -38 -13 -38 11 0 40 -29 83 -78 114 -32 20 -47 36 -47
52 0 20 6 22 60 27 l60 5 3 83 3 82 -36 0 c-34 0 -35 1 -35 38 -1 27 -9 46
-30 70 -16 17 -32 32 -35 32 -12 0 -3 -37 15 -60 11 -14 20 -37 20 -52 l0 -28
-75 0 -75 0 0 -85 0 -85 55 0 c53 0 55 -1 43 -20 -9 -14 -20 -19 -34 -16 -12
3 -52 10 -89 15 -44 7 -75 17 -89 30 -12 12 -33 21 -47 21 -25 0 -129 -64
-129 -80 0 -13 55 5 90 30 l29 21 40 -27 c28 -18 65 -30 123 -38 77 -12 166
-49 184 -77 3 -5 -34 -9 -86 -9 l-91 0 3 -82 3 -83 100 -5 100 -5 0 -73 0 -72
-257 0 -258 0 0 395 0 395 395 0 395 0 0 -40z m80 -554 l0 -115 -37 -3 c-36
-3 -38 -5 -41 -40 l-3 -38 -108 0 -109 0 0 72 c-1 40 3 77 9 84 6 7 4 16 -6
24 -8 7 -15 20 -15 30 0 15 11 18 78 22 64 3 89 10 147 39 39 20 73 37 78 37
4 1 7 -49 7 -112z"/>
</g>
</svg>
